#N canvas 358 136 860 564 10;
#X obj 73 163 dac~;
#X obj 21 69 osc~ 220;
#X floatatom 85 26 5 0 0 0 - - -;
#X obj 73 116 *~ 0;
#X msg 120 116 0;
#X msg 120 137 1, f 12;
#X obj 120 69 osc~ 440;
#X connect 1 0 3 0;
#X connect 2 0 1 0;
#X connect 2 0 6 0;
#X connect 3 0 0 0;
#X connect 4 0 3 1;
#X connect 5 0 3 1;
#X connect 6 0 3 0;
